<svg width="27" height="12" viewBox="0 0 27 12" fill="none" xmlns="http://www.w3.org/2000/svg">
<path fill-rule="evenodd" clip-rule="evenodd" d="M5.23173 1.66473C4.92165 2.06637 4.43813 2.29541 3.93093 2.2809C3.90314 1.78794 4.0713 1.30398 4.39876 0.934457C4.72616 0.554588 5.18865 0.3172 5.68816 0.272644C5.7214 0.778191 5.55785 1.27701 5.23173 1.66473ZM5.67674 2.3836C5.2514 2.3836 4.866 2.52741 4.55127 2.64485C4.3341 2.7259 4.15057 2.79438 4.0108 2.79438C3.86345 2.79438 3.68227 2.72249 3.47818 2.64152L3.47818 2.64152C3.20815 2.53438 2.89801 2.41133 2.57307 2.41783C1.82205 2.43266 1.13549 2.84547 0.770202 3.50183C0.182838 4.96264 0.389848 6.62303 1.31791 7.8949C1.68305 8.4312 2.12806 9.03596 2.69859 9.03596C2.97327 9.03596 3.16067 8.95396 3.35502 8.86893C3.56434 8.77734 3.78173 8.68223 4.12491 8.68223C4.46274 8.68223 4.67866 8.7744 4.88652 8.86312C5.08585 8.94821 5.27776 9.03013 5.56264 9.02455C6.14458 9.01313 6.53254 8.48825 6.89767 7.95195C7.16023 7.57401 7.36413 7.15853 7.50243 6.71961C6.8075 6.40561 6.36102 5.71356 6.36138 4.95097C6.37186 4.2763 6.72427 3.65313 7.29704 3.29644C6.93083 2.77194 6.33891 2.45061 5.69957 2.42924L5.67674 2.3836ZM9.8416 8.92185V0.934457L12.8654 0.888814C13.575 0.85235 14.2669 1.11832 14.7693 1.62076C15.2717 2.1232 15.5377 2.81503 15.5012 3.52465C15.5313 4.24157 15.2572 4.93784 14.7466 5.44195C14.236 5.94606 13.5362 6.21115 12.8198 6.17191H11.0968V8.92185H9.8416ZM11.0968 1.98423H12.466C12.9143 1.92491 13.3655 2.07011 13.695 2.37973C14.0245 2.68935 14.1975 3.13063 14.1662 3.58171C14.1981 4.03506 14.0237 4.47859 13.6914 4.78869C13.3592 5.09879 12.9047 5.24228 12.4546 5.17919H11.0739L11.0968 1.98423ZM19.6205 8.00901C19.2452 8.66476 18.5385 9.05977 17.7834 9.03596L17.7605 8.99031C17.2563 9.07637 16.7395 8.93988 16.3435 8.61607C15.9474 8.29226 15.711 7.81285 15.6952 7.30155C15.6952 6.2746 16.5282 5.68125 17.9773 5.58997L19.5406 5.49868V5.05367C19.5406 4.39186 19.164 4.03813 18.3995 4.03813C17.8756 4.01728 17.4049 4.35619 17.2585 4.85969H16.1174C16.2713 3.74386 17.2784 2.94831 18.3995 3.05682C19.8373 3.05682 20.7615 3.83274 20.7615 4.9738V8.96749H19.6205V8.00901ZM18.1257 8.07747C17.4524 8.07747 16.9846 7.75797 16.9846 7.26732C16.9846 6.77667 17.3954 6.46858 18.1257 6.42294L19.5178 6.33165V6.78808C19.4572 7.51561 18.8321 8.06502 18.1028 8.03183L18.1257 8.07747ZM24.6297 9.28699C24.139 10.6905 23.5685 11.1583 22.3476 11.1583L22.3248 11.1127C22.1699 11.1363 22.0135 11.1477 21.8569 11.1469V10.1884H22.2221C22.7369 10.2183 23.1907 9.85331 23.2718 9.34404L23.3859 8.99031L21.2636 3.1367H22.5986L24.0706 7.88349L25.5425 3.1367H26.8205L24.6297 9.28699Z" fill="#A49D93"/>
</svg>
