<svg width="24" height="10" viewBox="0 0 24 10" fill="none" xmlns="http://www.w3.org/2000/svg">
<path fill-rule="evenodd" clip-rule="evenodd" d="M22.5352 0.124634H9.97196C9.36937 0.124634 8.54764 0.496651 8.14591 0.95033L2.80014 6.96158H9.66153L13.9162 2.10268H22.1198L19.9148 4.70226H22.5306C23.1332 4.70226 23.6217 4.19867 23.6217 3.58621V1.23615C23.6263 0.628218 23.1378 0.124634 22.5352 0.124634ZM14.1901 2.63802H21.0835L21.047 2.67431L20.6872 3.08111L20.7137 3.05087L20.3485 3.46371L20.3408 3.47286L17.6688 6.49429L15.7651 8.64473C15.3634 9.09841 14.5417 9.47043 13.9391 9.47043H1.34386C0.745825 9.47043 0.252791 8.97138 0.257356 8.35891V6.00885C0.257356 5.39639 0.745825 4.89734 1.34842 4.89734H3.9962L1.77298 7.49692H10.0085L14.1901 2.63802ZM20.3408 3.47286L20.2526 3.57713L20.6872 3.08111L20.3408 3.47286Z" fill="#A49D93"/>
</svg>
