<svg width="41" height="42" viewBox="0 0 41 42" fill="none" xmlns="http://www.w3.org/2000/svg">
<circle cx="20.452" cy="20.9999" r="19.7467" stroke="#A49D93" stroke-width="1.41048"/>
<path d="M24.5625 13.0001C24.9935 13.0001 25.4068 13.1687 25.7115 13.4688C26.0163 13.7688 26.1875 14.1758 26.1875 14.6001V27.4001C26.403 27.4001 26.6097 27.4844 26.762 27.6344C26.9144 27.7845 27 27.9879 27 28.2001C27 28.4123 26.9144 28.6158 26.762 28.7658C26.6097 28.9158 26.403 29.0001 26.1875 29.0001H14.8125C14.597 29.0001 14.3903 28.9158 14.238 28.7658C14.0856 28.6158 14 28.4123 14 28.2001C14 27.9879 14.0856 27.7845 14.238 27.6344C14.3903 27.4844 14.597 27.4001 14.8125 27.4001V14.6001C14.8125 14.1758 14.9837 13.7688 15.2885 13.4688C15.5932 13.1687 16.0065 13.0001 16.4375 13.0001H24.5625ZM24.5625 14.6001H16.4375V27.4001H18.0625V23.0001C18.0625 22.7018 18.1754 22.4142 18.3791 22.1934C18.5828 21.9726 18.8627 21.8344 19.1642 21.8057L19.2812 21.8001H21.7188C22.0217 21.8001 22.3138 21.9113 22.5381 22.1118C22.7624 22.3124 22.9027 22.588 22.9318 22.8849L22.9375 23.0001V27.4001H24.5625V14.6001ZM21.3125 23.4001H19.6875V27.4001H21.3125V23.4001ZM18.875 18.6001C19.0905 18.6001 19.2972 18.6844 19.4495 18.8344C19.6019 18.9845 19.6875 19.1879 19.6875 19.4001C19.6875 19.6123 19.6019 19.8158 19.4495 19.9658C19.2972 20.1158 19.0905 20.2001 18.875 20.2001C18.6595 20.2001 18.4528 20.1158 18.3005 19.9658C18.1481 19.8158 18.0625 19.6123 18.0625 19.4001C18.0625 19.1879 18.1481 18.9845 18.3005 18.8344C18.4528 18.6844 18.6595 18.6001 18.875 18.6001ZM22.125 18.6001C22.3405 18.6001 22.5472 18.6844 22.6995 18.8344C22.8519 18.9845 22.9375 19.1879 22.9375 19.4001C22.9375 19.6123 22.8519 19.8158 22.6995 19.9658C22.5472 20.1158 22.3405 20.2001 22.125 20.2001C21.9095 20.2001 21.7028 20.1158 21.5505 19.9658C21.3981 19.8158 21.3125 19.6123 21.3125 19.4001C21.3125 19.1879 21.3981 18.9845 21.5505 18.8344C21.7028 18.6844 21.9095 18.6001 22.125 18.6001ZM18.875 16.2001C19.0905 16.2001 19.2972 16.2844 19.4495 16.4344C19.6019 16.5845 19.6875 16.7879 19.6875 17.0001C19.6875 17.2123 19.6019 17.4158 19.4495 17.5658C19.2972 17.7158 19.0905 17.8001 18.875 17.8001C18.6595 17.8001 18.4528 17.7158 18.3005 17.5658C18.1481 17.4158 18.0625 17.2123 18.0625 17.0001C18.0625 16.7879 18.1481 16.5845 18.3005 16.4344C18.4528 16.2844 18.6595 16.2001 18.875 16.2001ZM22.125 16.2001C22.3405 16.2001 22.5472 16.2844 22.6995 16.4344C22.8519 16.5845 22.9375 16.7879 22.9375 17.0001C22.9375 17.2123 22.8519 17.4158 22.6995 17.5658C22.5472 17.7158 22.3405 17.8001 22.125 17.8001C21.9095 17.8001 21.7028 17.7158 21.5505 17.5658C21.3981 17.7158 21.3125 17.2123 21.3125 17.0001C21.3125 16.7879 21.3981 16.5845 21.5505 16.4344C21.7028 16.2844 21.9095 16.2001 22.125 16.2001Z" fill="#A49D93"/>
</svg>
