<svg width="20" height="20" viewBox="0 0 20 20" fill="none" xmlns="http://www.w3.org/2000/svg">
<path d="M16.6667 13.925V16.0417C16.6675 16.2852 16.6108 16.5254 16.5015 16.7425C16.3922 16.9596 16.2335 17.1474 16.0383 17.2904C15.8431 17.4334 15.6171 17.5273 15.3792 17.5646C15.1413 17.6019 14.8981 17.5816 14.6708 17.5054C12.3633 16.8904 10.2158 15.7404 8.42083 14.1454C6.74979 12.6846 5.39479 10.8796 4.45833 8.85458C3.35417 6.51458 2.77083 3.97958 2.7525 1.40458C2.75167 1.16108 2.80833 0.920833 2.9175 0.70375C3.02667 0.486667 3.185 0.29875 3.38 0.155833C3.575 0.0129167 3.80083 -0.0808333 4.03833 -0.118333C4.27583 -0.155833 4.51833 -0.135417 4.745 0.04125C5.845 0.979583 7.07917 1.74542 8.40417 2.31208C8.62083 2.40458 8.80417 2.55458 8.93333 2.74542C9.0625 2.93625 9.1325 3.15958 9.135 3.38875C9.1375 3.61792 9.0725 3.84292 8.9475 4.03667C8.8225 4.23042 8.6425 4.38458 8.42917 4.48167C7.60417 4.85667 6.85417 5.35667 6.20833 5.96042C6.10417 6.06042 6.03167 6.18875 6.00083 6.32958C5.97 6.47042 5.9825 6.61708 6.03667 6.75042C6.52083 7.97958 7.22917 9.10958 8.125 10.0796C8.22917 10.1963 8.36083 10.2854 8.50833 10.3396C8.65583 10.3938 8.81417 10.4113 8.97 10.3904C9.12583 10.3696 9.27417 10.3104 9.4025 10.2188C9.53083 10.1271 9.635 10.0054 9.70667 9.86458C10.1042 9.11458 10.6458 8.44792 11.3 7.90667C11.4792 7.75667 11.6975 7.66208 11.9275 7.63458C12.1575 7.60708 12.3892 7.64792 12.5958 7.75208C13.5958 8.25208 14.6792 8.56458 15.7958 8.67708C16.025 8.70208 16.2417 8.79708 16.4167 8.95042C16.5917 9.10375 16.7167 9.30875 16.775 9.53875C16.9458 10.2146 17.0417 10.9071 17.0608 11.6046C17.0792 12.3796 16.9167 13.1796 16.6667 13.925Z" fill="#A49D93"/>
</svg>
