<svg width="20" height="20" viewBox="0 0 20 20" fill="none" xmlns="http://www.w3.org/2000/svg">
<path d="M10.002 1.66699C5.39746 1.66699 1.66846 5.39599 1.66846 10.0005C1.66846 11.6475 2.14346 13.1835 2.95346 14.4875L1.66846 18.3335L5.61846 17.0745C6.87246 17.8065 8.38646 18.2345 10.002 18.2345C14.6065 18.2345 18.3355 14.5055 18.3355 9.90099C18.3355 5.29649 14.6065 1.66699 10.002 1.66699ZM10.002 16.6675C8.58646 16.6675 7.25246 16.2345 6.13046 15.4745L5.83546 15.2875L3.66846 15.8745L4.27246 13.7745L4.06446 13.4675C3.23046 12.2875 2.75246 10.8945 2.75246 9.40099C2.75246 6.26199 5.30146 3.71299 8.44046 3.71299C11.5795 3.71299 14.1285 6.26199 14.1285 9.40099C14.1285 12.54 11.5795 16.6675 10.002 16.6675ZM13.8355 11.7745C13.6685 11.6875 12.7525 11.2475 12.6025 11.1945C12.4525 11.1275 12.3355 11.0945 12.2185 11.2745C12.1015 11.4475 11.7855 11.8205 11.6855 11.9345C11.5855 12.0545 11.4855 12.0675 11.3185 11.9805C10.2855 11.4875 9.55246 11.0875 8.81946 10.0475C8.65246 9.80749 8.98646 9.83449 9.28646 9.16749C9.33646 9.05449 9.31946 8.95449 9.26946 8.86749C9.21946 8.78749 8.86946 7.86749 8.71946 7.48749C8.56946 7.12049 8.41946 7.16749 8.30246 7.16049H7.95246C7.81946 7.16049 7.61946 7.20749 7.45246 7.38749C7.28546 7.57449 6.78546 8.04749 6.78546 9.01449C6.78546 9.98149 7.48546 10.9145 7.58546 11.0475C7.68546 11.1805 8.86946 13.0745 10.7525 13.8745C11.1855 14.0545 11.5195 14.1545 11.7855 14.2275C12.2855 14.3605 12.7355 14.3275 13.0855 14.2745C13.4855 14.2145 14.3355 13.7475 14.5025 13.2345C14.6695 12.7215 14.6695 12.2815 14.6195 12.1945C14.5695 12.1075 14.0025 11.8745 13.8355 11.7745Z" fill="#A49D93"/>
</svg>
