<svg width="20" height="18" viewBox="0 0 20 18" fill="none" xmlns="http://www.w3.org/2000/svg">
<path fill-rule="evenodd" clip-rule="evenodd" d="M1.64262 17.29H10.2529C16.3031 17.29 19.6419 14.2973 19.6419 8.86723C19.6419 5.73754 18.4232 0.48053 10.2529 0.48053H1.64262C0.878225 0.48053 0.258057 1.1007 0.258057 1.86509V15.9054C0.258057 16.6698 0.878225 17.29 1.64262 17.29ZM0.719577 1.86509C0.719577 1.35309 1.13062 0.94205 1.64262 0.94205H10.2529C13.5845 0.94205 19.1804 1.97326 19.1804 8.86723C19.1804 14.0016 16.0075 16.8285 10.2529 16.8285H1.64262C1.13062 16.8285 0.719577 16.4174 0.719577 15.9054V1.86509Z" fill="#A49D93"/>
<path fill-rule="evenodd" clip-rule="evenodd" d="M5.53662 3.22083V15.4656H10.8657C15.7045 15.4656 17.803 12.7325 17.803 8.86725C17.803 5.16787 15.7045 2.29779 10.8657 2.29779H6.45966C5.94766 2.29779 5.53662 2.71604 5.53662 3.22083ZM7.93803 7.30236C7.77217 7.24467 7.5991 7.21583 7.41161 7.21583V7.20862H6.16406V10.1364H7.42603C7.64958 10.1364 7.84429 10.0931 8.01015 10.021C8.176 9.94169 8.31302 9.84073 8.42119 9.71093C8.52936 9.58112 8.60868 9.42248 8.66637 9.24219C8.71685 9.06191 8.74569 8.86721 8.74569 8.65087C8.74569 8.40569 8.70964 8.19656 8.64474 8.01628C8.57262 7.84321 8.47888 7.69177 8.3635 7.56918C8.24091 7.4538 8.10389 7.36005 7.93803 7.30236ZM7.64237 9.55949C7.54862 9.58833 7.46209 9.60276 7.36834 9.60276V9.60997H6.79865V7.76389H7.26017C7.41882 7.76389 7.54862 7.78552 7.65679 7.82879C7.76496 7.87205 7.8515 7.94417 7.9164 8.02349C7.9813 8.10281 8.03178 8.21098 8.06062 8.32636C8.08947 8.44174 8.10389 8.57876 8.10389 8.72298C8.10389 8.88884 8.08226 9.01864 8.03899 9.13402C7.99572 9.2494 7.93803 9.33594 7.87313 9.40805C7.80823 9.48017 7.72891 9.53064 7.64237 9.55949ZM11.349 7.75667V7.21583V7.20862H9.16395V10.1364H11.385V9.59555H9.80575V8.88163H11.2264V8.38405H9.80575V7.75667H11.349ZM14.6517 10.1436L13.5556 7.21583H12.885L11.7816 10.1436H12.4306L12.6614 9.49459H13.7575L13.9811 10.1436H14.6517ZM13.2239 7.93696L13.5917 9.01143H12.8345L13.2167 7.93696H13.2239ZM15.6973 9.60276V7.21583H15.0555V10.1436H17.1252V9.60276H15.6973Z" fill="#A49D93"/>
<circle cx="3.12805" cy="8.67974" r="1.34851" fill="#A49D93"/>
<path d="M4.14504 15.4655V15.4655C3.01287 15.4655 2.10425 14.5497 2.10425 13.4248V11.8311C2.10425 11.2686 2.55856 10.8071 3.12825 10.8071V10.8071C3.69073 10.8071 4.15225 11.2614 4.15225 11.8311V15.4655H4.14504Z" fill="#A49D93"/>
</svg>
