<svg width="41" height="42" viewBox="0 0 41 42" fill="none" xmlns="http://www.w3.org/2000/svg">
<circle cx="20.452" cy="20.9999" r="19.7467" stroke="#A49D93" stroke-width="1.41048"/>
<g clip-path="url(#clip0_kcp_quality)">
<path fill-rule="evenodd" clip-rule="evenodd" d="M26.9345 17.0967C27.0667 17.229 27.141 17.4083 27.141 17.5953C27.141 17.7824 27.0667 17.9617 26.9345 18.094L19.0062 26.023C18.9342 26.095 18.8486 26.1522 18.7545 26.1912C18.6603 26.2302 18.5594 26.2503 18.4575 26.2503C18.3556 26.2503 18.2547 26.2302 18.1606 26.1912C18.0664 26.1522 17.9809 26.095 17.9088 26.023L13.9694 22.0835C13.9038 22.018 13.8519 21.9402 13.8164 21.8546C13.7809 21.769 13.7627 21.6772 13.7627 21.5845C13.7627 21.4919 13.7809 21.4001 13.8164 21.3145C13.8519 21.2289 13.9038 21.1511 13.9694 21.0856C14.0349 21.0201 14.1127 20.9681 14.1983 20.9326C14.2839 20.8972 14.3757 20.8789 14.4683 20.8789C14.561 20.8789 14.6528 20.8972 14.7384 20.9326C14.824 20.9681 14.9018 21.0201 14.9673 21.0856L18.4582 24.5765L25.9366 17.0967C26.0688 16.9645 26.2482 16.8903 26.4352 16.8903C26.6222 16.8903 26.8023 16.9645 26.9345 17.0967Z" fill="#A49D93"/>
</g>
<defs>
<clipPath id="clip0_kcp_quality">
<rect width="16.9258" height="16.9258" fill="white" transform="translate(11.9888 13.2423)"/>
</clipPath>
</defs>
</svg>
