<svg width="33" height="33" viewBox="0 0 33 33" fill="none" xmlns="http://www.w3.org/2000/svg">
<circle cx="16.0553" cy="16.0553" r="15.5017" stroke="#A49D93" stroke-width="1.10726"/>
<path d="M18.7231 15.7356C18.7601 15.828 18.7589 15.9312 18.7197 16.0226C18.6806 16.114 18.6067 16.1862 18.5144 16.2231L16.4688 17.0413L17.675 18.65C17.7347 18.7296 17.7603 18.8296 17.7462 18.928C17.7322 19.0265 17.6796 19.1153 17.6 19.175C17.5204 19.2347 17.4204 19.2603 17.322 19.2462C17.2235 19.2322 17.1347 19.1796 17.075 19.1L15.875 17.5L14.675 19.1C14.6455 19.1394 14.6084 19.1726 14.5661 19.1977C14.5237 19.2228 14.4768 19.2393 14.428 19.2462C14.3793 19.2532 14.3296 19.2505 14.2819 19.2383C14.2342 19.226 14.1894 19.2045 14.15 19.175C14.1106 19.1455 14.0774 19.1084 14.0523 19.0661C14.0272 19.0237 14.0107 18.9768 14.0038 18.928C13.9968 18.8793 13.9995 18.8296 14.0117 18.7819C14.024 18.7342 14.0455 18.6894 14.075 18.65L15.2812 17.0413L13.2356 16.2231C13.1441 16.1856 13.071 16.1135 13.0324 16.0224C12.9938 15.9312 12.9928 15.8286 13.0296 15.7367C13.0664 15.6449 13.138 15.5712 13.2288 15.5319C13.3196 15.4926 13.4222 15.4908 13.5144 15.5269L15.5 16.3212V14.375C15.5 14.2755 15.5395 14.1802 15.6098 14.1098C15.6802 14.0395 15.7755 14 15.875 14C15.9745 14 16.0698 14.0395 16.1402 14.1098C16.2105 14.1802 16.25 14.2755 16.25 14.375V16.3212L18.2356 15.5269C18.328 15.4899 18.4312 15.4911 18.5226 15.5303C18.614 15.5694 18.6862 15.6433 18.7231 15.7356ZM21.75 11.875V15.375C21.75 18.6212 20.18 20.5875 18.8625 21.665C17.4419 22.8275 16.0331 23.2206 15.9738 23.2369C15.9091 23.2545 15.8409 23.2545 15.7762 23.2369C15.7137 23.2206 14.3081 22.8275 12.8875 21.665C11.57 20.5875 10 18.6212 10 15.375V11.875C10 11.6429 10.0922 11.4204 10.2563 11.2563C10.4204 11.0922 10.6429 11 10.875 11H20.875C21.1071 11 21.3296 11.0922 21.4937 11.2563C21.6578 11.4204 21.75 11.6429 21.75 11.875ZM21 11.875C21 11.8418 20.9868 11.8101 20.9634 11.7866C20.9399 11.7632 20.9082 11.75 20.875 11.75H10.875C10.8418 11.75 10.8101 11.7632 10.7866 11.7866C10.7632 11.8101 10.75 11.8418 10.75 11.875V15.375C10.75 17.7344 11.6213 19.6494 13.34 21.0662C14.0939 21.6856 14.9524 22.1652 15.875 22.4825C16.7975 22.165 17.656 21.6854 18.41 21.0662C20.1287 19.6494 21 17.7344 21 15.375V11.875Z" fill="#A49D93" stroke="#A49D93" stroke-width="0.3"/>
</svg>
