<?xml version="1.0" encoding="UTF-8"?>
<svg id="Laag_1" data-name="Laag 1" xmlns="http://www.w3.org/2000/svg" viewBox="0 0 32.11 32.11">
  <defs>
    <style>
      .cls-1, .cls-2, .cls-3 {
        fill: none;
        stroke: #a49d93;
      }

      .cls-2 {
        stroke-linecap: round;
        stroke-linejoin: round;
      }

      .cls-3 {
        stroke-width: 1.11px;
      }
    </style>
  </defs>
  <circle class="cls-3" cx="16.06" cy="16.06" r="15.5"/>
  <path class="cls-2" d="M16.06,24.94c-4.81,0-8.71-3.98-8.71-8.89s3.9-8.89,8.71-8.89,8.71,3.54,8.71,7.9c0,1.05-.46,2.05-1.28,2.79s-1.92,1.16-3.08,1.16h-2.42c-1.07-.02-1.95.85-1.97,1.94-.01.73.37,1.41,1,1.76.51.48.54,1.29.07,1.81-.27.29-.65.44-1.04.41"/>
  <path class="cls-1" d="M11.7,14.57c0,.55.43.99.97.99s.97-.44.97-.99-.43-.99-.97-.99-.97.44-.97.99"/>
  <path class="cls-2" d="M15.57,11.61c0,.55.43.99.97.99s.97-.44.97-.99-.43-.99-.97-.99-.97.44-.97.99"/>
  <path class="cls-2" d="M19.44,14.57c0,.55.43.99.97.99s.97-.44.97-.99-.43-.99-.97-.99-.97.44-.97.99"/>
</svg>